# xmcd
#
# Track frame offsets:
#	150
#	14932
#	27394
#	46697
#	60308
#	71776
#	92235
#	103923
#	116393
#	135437
#	153468
#	166428
#	186009
#	210463
#	222033
#
# Disc length: 3150 seconds
#
# Revision: 0
# Processed by: cddbd v1.5.2PL0 Copyright (c) Steve Scherf et al.
# Submitted via: EZCDAudioConverter 1.3.4.1
#
DISCID=d00c4c0f
DTITLE=Roky Erickson - The Evil One
DYEAR=1900
DGENRE=
TTITLE0=Two Headed Dog (Red Temple Prayer)
TTITLE1=I Walked With A Zombie
TTITLE2=Night Of The Vampire
TTITLE3=It's A Cold Night For Alligators
TTITLE4=Mine Mine Mind
TTITLE5=Sputnik
TTITLE6=White Faces
TTITLE7=I Think Of Demons
TTITLE8=Creature With The Atom Brain
TTITLE9=The Wind And More
TTITLE10=Don't Shake Me Lucifer
TTITLE11=Bloody Hammer
TTITLE12=Stand For The Fire Demon
TTITLE13=Click Your Fingers Applauding The Play
TTITLE14=If You Have Ghosts
EXTD=
EXTT0=
EXTT1=
EXTT2=
EXTT3=
EXTT4=
EXTT5=
EXTT6=
EXTT7=
EXTT8=
EXTT9=
EXTT10=
EXTT11=
EXTT12=
EXTT13=
EXTT14=
PLAYORDER=
